<svg xmlns="http://www.w3.org/2000/svg" version="1.1" xmlns:xlink="http://www.w3.org/1999/xlink" width="512" height="512" x="0" y="0" viewBox="0 0 512 512" style="enable-background:new 0 0 512 512" xml:space="preserve" class=""><g><path d="M139.043 161.854 245.716 55.181c-54.291 9.896-96.777 52.382-106.673 106.673zM136.828 379.586c.082 73.096 59.318 132.331 132.413 132.414h35.31c73.096-.083 132.331-59.318 132.414-132.414V247.172H320.953c-3.964 15.574-17.987 26.475-34.057 26.475s-30.093-10.901-34.057-26.475H136.828zM251.586 197.862l-31.656 31.655h31.656z" fill="#ffffff" opacity="1" data-original="#000000" class=""></path><path d="M269.241 167.724v70.621c0 9.751 7.905 17.655 17.655 17.655 9.751 0 17.655-7.904 17.655-17.655v-70.621c0-9.751-7.904-17.655-17.655-17.655-9.75 0-17.655 7.904-17.655 17.655zM136.828 225.863 278.069 84.621V52.966h-5.173L136.828 189.034z" fill="#ffffff" opacity="1" data-original="#000000" class=""></path><path d="M322.207 167.724v61.793h114.759v-44.138c-.083-73.096-59.318-132.331-132.414-132.414h-8.828v80.702c15.543 4.013 26.423 18.005 26.483 34.057zM251.586 167.724c.06-16.052 10.94-30.044 26.483-34.057v-24.082L158.137 229.517h36.829l56.62-56.62zM163.31 52.966a8.828 8.828 0 0 0 8.828-8.828V8.828a8.828 8.828 0 0 0-17.656 0v35.31a8.83 8.83 0 0 0 8.828 8.828zM121.759 59.207a8.828 8.828 0 0 0 12.483-12.483l-24.973-24.973a8.827 8.827 0 0 0-14.89 3.898 8.826 8.826 0 0 0 2.407 8.585zM83.862 97.103h35.31a8.828 8.828 0 0 0 0-17.656h-35.31a8.828 8.828 0 0 0 0 17.656z" fill="#ffffff" opacity="1" data-original="#000000" class=""></path></g></svg>